<?xml version="1.0" standalone="no"?>
<!DOCTYPE svg PUBLIC "-//W3C//DTD SVG 20010904//EN"
 "http://www.w3.org/TR/2001/REC-SVG-20010904/DTD/svg10.dtd">
<svg version="1.0" xmlns="http://www.w3.org/2000/svg"
 width="1024.000000pt" height="1024.000000pt" viewBox="0 0 1024.000000 1024.000000"
 preserveAspectRatio="xMidYMid meet">
<metadata>
Created by potrace 1.11, written by Peter Selinger 2001-2013
</metadata>
<g transform="translate(0.000000,1024.000000) scale(0.100000,-0.100000)"
fill="#000000" stroke="none">
<path d="M1124 9905 c-152 -27 -252 -67 -374 -147 -186 -123 -333 -325 -391
-533 -11 -41 -23 -85 -27 -97 -3 -13 -8 -845 -9 -1850 l-3 -1828 2240 0 2240
0 0 2235 0 2235 -1802 -1 c-1410 -1 -1818 -4 -1874 -14z"/>
<path d="M5440 7685 l0 -2235 2240 0 2240 0 -3 1828 c-1 1005 -6 1837 -9 1850
-4 12 -16 56 -27 97 -41 150 -124 290 -240 405 -125 125 -213 181 -379 240
-143 50 -102 49 -2024 50 l-1798 0 0 -2235z"/>
<path d="M320 2988 c1 -1523 3 -1815 15 -1877 59 -305 251 -558 524 -691 42
-21 101 -45 131 -53 30 -9 73 -22 95 -29 31 -10 439 -13 1878 -16 l1837 -3 0
2236 0 2235 -2240 0 -2240 0 0 -1802z"/>
<path d="M5440 2555 l0 -2235 1808 0 c1829 1 1823 1 1960 34 136 32 294 121
412 232 130 123 220 275 273 463 l21 76 3 1833 4 1832 -2241 0 -2240 0 0
-2235z"/>
</g>
</svg>
